<svg width="72" height="20" viewBox="0 0 72 20" fill="none"
    xmlns="http://www.w3.org/2000/svg">
    <rect width="72" height="20" fill="#002A8D"/>
    <path fill-rule="evenodd" clip-rule="evenodd" d="M17.9164 15.4754C17.9164 15.4754 17.7796 16.158 18.3784 16.2145C18.6812 16.2247 19.0031 16.2247 19.3414 16.2247C21.5004 16.2247 23.4756 15.3896 23.5198 13.3382C23.5605 11.5201 22.0234 10.9722 20.1712 10.9722H18.8643L17.9164 15.4754ZM27.7118 13.4385C27.7118 16.1593 25.5416 19.7488 18.0357 19.307C17.156 19.2547 16.6155 19.1783 15.822 18.9731C12.9948 18.2408 13.9893 14.7299 13.9893 14.7299L16.866 1.14377C18.449 0.872329 20.2242 0.70751 22.0478 0.70751C26.0622 0.70751 28.7223 2.21509 28.7223 5.03656C28.7223 7.67833 26.2996 9.11412 24.4657 9.43951C25.919 9.55378 27.7118 10.7343 27.7118 13.4385ZM20.3723 3.86242L19.6466 7.3627C19.6466 7.3627 19.4663 8.11203 20.081 8.11203H20.9276C23.1054 8.11203 24.6137 7.21403 24.6516 5.6321C24.6823 4.32715 23.6148 3.76175 22.0988 3.76175C21.4059 3.76175 20.6782 3.81145 20.3723 3.86242ZM46.0653 19.356H43.6825L47.4608 1.24462C49.0234 0.860181 50.6682 0.784144 52.5731 0.801135C57.2227 0.820676 59.3542 2.69273 59.3542 5.95598C59.3542 8.94608 57.1178 13.3456 50.687 13.3456C50.0283 13.3456 49.4618 13.2662 49.0529 13.2373C49.0529 13.2373 48.5291 15.7555 48.2176 17.2393C47.825 19.102 46.6749 19.356 46.0653 19.356ZM51.2343 3.99429L50.1839 9.0442C50.1839 9.0442 49.8452 10.1177 51.0544 10.1177C51.2036 10.1244 51.3656 10.1291 51.5439 10.1291C54.2471 10.107 55.6354 8.22988 55.6354 6.28646C55.6354 4.37448 54.3947 3.90423 52.9011 3.90423C52.1383 3.90423 51.5658 3.94246 51.2343 3.99429ZM34.2501 11.3543C34.2501 14.2132 35.8095 16.0411 38.4848 16.0411C39.5862 16.0411 40.7898 15.8444 42.4131 14.5768L41.7768 17.6217C41.7768 17.6217 41.6 18.6319 40.5457 19.0244C39.6892 19.3663 38.7856 19.5218 37.416 19.5218C33.601 19.5218 29.8782 17.5219 29.8782 11.596C29.8782 6.05295 33.2141 0.418945 39.6536 0.418945C40.9171 0.418945 41.8103 0.608402 42.954 1.00133C44.7177 1.60709 44.9319 2.62404 44.8151 3.23361C44.6958 3.85763 44.2797 5.35714 44.2797 5.35714C43.1702 4.30196 41.2378 4.00503 40.1635 4.00503C36.0473 4.00503 34.2501 8.40629 34.2501 11.3543ZM7.05205 8.98796C5.6127 7.32618 4.09435 6.32155 2.97335 5.74893C2.97335 5.74893 2.42721 5.4605 2.14197 5.29483C2.55766 4.29997 3.1046 3.58929 3.1046 3.58929C3.18199 3.48182 4.83876 1.40884 6.29607 2.13693C7.88782 2.89943 8.04979 6.39928 7.05205 8.98796ZM66.1849 8.98796C64.7456 7.32618 63.2272 6.32155 62.1062 5.74893C62.1062 5.74893 61.5601 5.4605 61.2748 5.29483C61.6905 4.29997 62.2375 3.58929 62.2375 3.58929C62.3149 3.48182 63.9716 1.40884 65.429 2.13693C67.0207 2.89943 67.1827 6.39928 66.1849 8.98796Z" fill="white"/>
    <path fill-rule="evenodd" clip-rule="evenodd" d="M11.9906 11.6344C10.4387 14.2737 6.20526 17.282 5.00566 17.7332C2.67269 18.7726 1.09331 16.8449 0.958474 16.6427C0.523237 16.0459 0.41752 15.9197 0.206882 15.4843C0.165792 15.5565 4.68532 13.3179 6.30459 10.4217C8.0583 7.93409 8.2111 3.05451 6.29581 2.13696C6.87507 2.44749 8.23982 3.28177 9.47133 4.45037C10.7 5.5595 11.762 7.01399 11.7393 6.9953C11.8689 7.18263 13.408 9.22248 11.9906 11.6344ZM70.8721 6.9953C71.0018 7.18263 72.5409 9.22248 71.1235 11.6344C69.572 14.2737 65.3381 17.282 64.1385 17.7332C61.8056 18.7726 60.2262 16.8449 60.0913 16.6427C59.6561 16.0459 59.5504 15.9197 59.3397 15.4843C59.2986 15.5565 63.8186 13.3179 65.4374 10.4217C67.1912 7.93409 67.3439 3.05451 65.4287 2.13696C66.0079 2.44749 67.3727 3.28177 68.6042 4.45037C69.8329 5.5595 70.8953 7.01399 70.8721 6.9953Z" fill="#FF7800"/>
</svg>
